<svg  xmlns="http://www.w3.org/2000/svg" viewBox="0 0 24 24" width="96px" height="96px"><path d="M 6 1 C 2.6981361 1 0 3.6981361 0 7 C 0 8.7662485 0.77646896 10.354918 2 11.455078 L 2 18 A 1.0001 1.0001 0 0 0 3 19 L 3.0507812 19 C 3.2981765 20.685411 4.7500665 22 6.5 22 C 8.2499335 22 9.7018235 20.685411 9.9492188 19 L 14.050781 19 C 14.298177 20.685411 15.750067 22 17.5 22 C 19.249933 22 20.701823 20.685411 20.949219 19 L 22 19 A 1.0001 1.0001 0 0 0 23 18 L 23 15.306641 C 23 14.751055 22.844767 14.206877 22.554688 13.734375 A 1.0001 1.0001 0 0 0 22.554688 13.732422 L 20.517578 10.425781 C 19.972047 9.5400906 19.002712 9 17.962891 9 L 16 9 L 16 7 A 1.0001 1.0001 0 0 0 15 6 L 11.908203 6 C 11.427922 3.1716601 8.9603849 1 6 1 z M 6 3 C 8.2209836 3 10 4.7790164 10 7 C 10 9.2209836 8.2209836 11 6 11 C 3.7790164 11 2 9.2209836 2 7 C 2 4.7790164 3.7790164 3 6 3 z M 5 5 L 5 8.4140625 L 6.7050781 10.119141 L 8.1191406 8.7050781 L 7 7.5859375 L 7 5 L 5 5 z M 11.908203 8 L 14 8 L 14 10 L 14 12 L 14 17 L 9.6445312 17 C 9.0777003 15.824694 7.8831519 15 6.5 15 C 5.5230937 15 4.6372995 15.410546 4 16.064453 L 4 12.648438 C 4.6270868 12.872065 5.298272 13 6 13 C 8.9603849 13 11.427922 10.82834 11.908203 8 z M 16 11 L 17.962891 11 C 18.311069 11 18.631984 11.178347 18.814453 11.474609 L 20.851562 14.78125 C 20.948828 14.940353 21 15.122859 21 15.306641 L 21 17 L 20.644531 17 C 20.0777 15.824694 18.883152 15 17.5 15 C 16.962 15 16.457155 15.13499 16 15.355469 L 16 12 L 16 11 z M 6.5 17 C 7.3402718 17 8 17.659728 8 18.5 C 8 19.340272 7.3402718 20 6.5 20 C 5.6597282 20 5 19.340272 5 18.5 C 5 17.659728 5.6597282 17 6.5 17 z M 17.5 17 C 18.340272 17 19 17.659728 19 18.5 C 19 19.340272 18.340272 20 17.5 20 C 16.659728 20 16 19.340272 16 18.5 C 16 17.659728 16.659728 17 17.5 17 z"/></svg>