<svg xmlns="http://www.w3.org/2000/svg" viewBox="0 0 50 50" width="150px" height="150px"><path d="M 22.21875 2 C 11.070313 2 2 11.070313 2 22.21875 C 2 28.414063 3.5 33.746094 3.5625 33.96875 C 3.632813 34.21875 3.808594 34.433594 4.03125 34.5625 C 7.820313 36.753906 29.964844 47.695313 36.875 48 C 36.890625 48 36.890625 48 36.90625 48 C 37.09375 48 37.277344 47.945313 37.4375 47.84375 C 43.332031 44.144531 45.804688 38.636719 45.90625 38.40625 C 45.917969 38.378906 45.925781 38.339844 45.9375 38.3125 C 45.953125 38.265625 45.960938 38.238281 45.96875 38.1875 C 45.976563 38.15625 45.964844 38.125 45.96875 38.09375 C 45.972656 38.066406 46 38.027344 46 38 C 46 37.453125 45.984375 24.554688 42.96875 16.6875 C 41.625 11.378906 33.585938 2 22.21875 2 Z M 41.25 17.84375 C 43.46875 24.023438 43.886719 33.449219 43.96875 36.78125 C 33.855469 34.605469 25.191406 28.351563 21.8125 25.65625 C 23.671875 24.925781 25 23.113281 25 21 C 25 20.285156 24.835938 19.617188 24.5625 19 C 34.195313 18.925781 39.351563 18.1875 41.25 17.84375 Z M 20 18 C 21.652344 18 23 19.347656 23 21 C 23 22.652344 21.652344 24 20 24 C 18.347656 24 17 22.652344 17 21 C 17 19.347656 18.347656 18 20 18 Z M 20 19.5 C 19.171875 19.5 18.5 20.171875 18.5 21 C 18.5 21.828125 19.171875 22.5 20 22.5 C 20.828125 22.5 21.5 21.828125 21.5 21 C 21.5 20.171875 20.828125 19.5 20 19.5 Z"/></svg>