<svg xmlns="http://www.w3.org/2000/svg" viewBox="0 0 26 26" width="104px" height="104px"><path d="M 15.9375 3.4375 C 15.871094 3.449219 15.808594 3.472656 15.75 3.5 C 15.75 3.5 14.265625 4.019531 13.03125 5.03125 C 12.785156 5.183594 12.648438 5.464844 12.683594 5.753906 C 12.714844 6.042969 12.914063 6.285156 13.1875 6.378906 C 13.464844 6.472656 13.769531 6.398438 13.96875 6.1875 C 14.652344 5.625 15.152344 5.46875 15.59375 5.28125 C 15.679688 5.617188 15.859375 6.238281 16.125 7.0625 C 16.082031 7.074219 16.050781 7.09375 16 7.09375 C 9.699219 7.09375 10.804688 10.09375 9.90625 10.09375 C 7.707031 10.09375 6.898438 10.199219 6.5 9.5 C 5.898438 8.5 6.398438 8.09375 4 8.09375 C 0.601563 8.09375 0.1875 9.1875 0.1875 9.1875 C 0.1875 9.1875 0.304688 10.09375 1.40625 10.09375 C 5.707031 10.09375 7.113281 10.789063 8.3125 11.6875 C 8.507813 11.832031 8.679688 12 8.84375 12.1875 L 7.8125 12.78125 C 7.027344 11.824219 5.855469 11.1875 4.5 11.1875 C 2.101563 11.1875 0.1875 13.101563 0.1875 15.5 C 0.1875 17.898438 2.101563 19.8125 4.5 19.8125 C 6.589844 19.8125 8.3125 18.363281 8.71875 16.40625 L 10.375 16.40625 C 11.757813 17.65625 16.28125 17.140625 16.1875 16.09375 C 16.003906 13.691406 16.761719 11.601563 17.375 10.34375 C 17.6875 11.03125 18.0625 11.746094 18.46875 12.46875 C 18.058594 12.910156 17.71875 13.398438 17.5 13.90625 C 17.199219 14.707031 17.09375 15.90625 17.59375 15.90625 C 18.039063 15.90625 18.039063 15.457031 18.40625 14.84375 C 18.289063 15.210938 18.1875 15.59375 18.1875 16 C 18.1875 18.101563 19.898438 19.8125 22 19.8125 C 24.101563 19.8125 25.8125 18.101563 25.8125 16 C 25.8125 14.703125 25.148438 13.5625 24.15625 12.875 C 24.371094 12.886719 24.601563 12.90625 24.8125 12.90625 C 25.113281 12.90625 24.507813 11.09375 21.40625 11.09375 C 20.789063 11.09375 20.21875 11.253906 19.71875 11.5 C 19.277344 10.6875 18.90625 9.902344 18.5625 9.125 C 19.089844 9.136719 19.878906 9.054688 19.8125 8.3125 C 19.8125 7.710938 19.386719 6.40625 19.1875 5.90625 C 18.886719 5.105469 18.1875 5.09375 18.1875 5.09375 L 17.03125 5.09375 C 16.851563 4.503906 16.71875 4.03125 16.71875 4.03125 C 16.640625 3.667969 16.308594 3.414063 15.9375 3.4375 Z M 4.5 13.09375 C 5.140625 13.09375 5.71875 13.332031 6.15625 13.71875 L 4.25 14.8125 C 4.195313 14.835938 4.140625 14.871094 4.09375 14.90625 C 4.027344 14.9375 3.960938 14.980469 3.90625 15.03125 C 3.863281 15.058594 3.820313 15.089844 3.78125 15.125 C 3.78125 15.136719 3.78125 15.144531 3.78125 15.15625 C 3.769531 15.167969 3.761719 15.175781 3.75 15.1875 C 3.722656 15.246094 3.699219 15.308594 3.6875 15.375 C 3.59375 15.660156 3.664063 15.972656 3.875 16.1875 C 3.886719 16.1875 3.894531 16.1875 3.90625 16.1875 C 3.914063 16.207031 3.925781 16.230469 3.9375 16.25 C 3.949219 16.25 3.957031 16.25 3.96875 16.25 C 3.980469 16.261719 3.988281 16.269531 4 16.28125 C 4.011719 16.28125 4.019531 16.28125 4.03125 16.28125 C 4.039063 16.300781 4.050781 16.324219 4.0625 16.34375 C 4.074219 16.34375 4.082031 16.34375 4.09375 16.34375 C 4.132813 16.359375 4.175781 16.367188 4.21875 16.375 C 4.230469 16.375 4.238281 16.375 4.25 16.375 C 4.289063 16.390625 4.332031 16.398438 4.375 16.40625 C 4.386719 16.40625 4.394531 16.40625 4.40625 16.40625 C 4.4375 16.40625 4.46875 16.40625 4.5 16.40625 C 4.519531 16.40625 4.542969 16.40625 4.5625 16.40625 L 6.875 16.40625 C 6.550781 17.40625 5.621094 18.09375 4.5 18.09375 C 3.101563 18.09375 2 16.992188 2 15.59375 C 2 14.195313 3.101563 13.09375 4.5 13.09375 Z M 9.625 13.59375 C 9.78125 13.980469 9.941406 14.382813 10.03125 14.8125 L 8.75 14.8125 C 8.714844 14.597656 8.65625 14.390625 8.59375 14.1875 Z M 22 13.90625 C 23.199219 13.90625 24.1875 14.894531 24.1875 16.09375 C 24.1875 17.292969 23.199219 18.3125 22 18.3125 C 20.800781 18.3125 19.8125 17.292969 19.8125 16.09375 C 19.8125 15.707031 19.914063 15.351563 20.09375 15.03125 C 20.503906 15.578125 20.960938 16.113281 21.4375 16.625 C 21.722656 16.9375 22.203125 16.957031 22.515625 16.671875 C 22.828125 16.386719 22.847656 15.90625 22.5625 15.59375 C 22.109375 15.105469 21.679688 14.582031 21.28125 14.03125 C 21.511719 13.949219 21.746094 13.90625 22 13.90625 Z"/></svg>