<svg id="SvgjsSvg1001" width="288" height="288" xmlns="http://www.w3.org/2000/svg" version="1.1" xmlns:xlink="http://www.w3.org/1999/xlink" xmlns:svgjs="http://svgjs.com/svgjs"><defs id="SvgjsDefs1002"></defs><g id="SvgjsG1008" transform="matrix(0.9167,0,0,0.9167,11.99520428981782,12.089594422149673)"><!--?xml version="1.0" encoding="UTF-8" standalone="no"?--><svg xmlns:dc="http://purl.org/dc/elements/1.1/" xmlns:cc="http://creativecommons.org/ns#" xmlns:rdf="http://www.w3.org/1999/02/22-rdf-syntax-ns#" xmlns:svg="http://www.w3.org/2000/svg" xmlns="http://www.w3.org/2000/svg" xmlns:sodipodi="http://sodipodi.sourceforge.net/DTD/sodipodi-0.dtd" xmlns:inkscape="http://www.inkscape.org/namespaces/inkscape" width="288" height="288" viewBox="0 0 8.4666665 8.4666669" version="1.1" id="svg8" inkscape:version="0.91 r13725" sodipodi:docname="helmet-motorcycle-safety-rider-protection-gear.svg">
  <defs id="defs2">
    <inkscape:path-effect effect="fillet-chamfer" id="path-effect6194-9" is_visible="true" fillet_chamfer_values="-2.083553,1 | -1.5194253,1 | 0,1" method="auto" radius="2" chamfer_steps="1" helper_size="0" flexible="false" use_knot_distance="false" ignore_radius_0="false" only_selected="true" hide_knots="false"></inkscape:path-effect>
    <inkscape:path-effect effect="fillet-chamfer" id="path-effect6200-3" is_visible="true" fillet_chamfer_values="0,0 | -2.1346047,1 | -1.3969861,1 | -0.057274208,1 | -0.16666667,1" method="auto" radius="0.5" chamfer_steps="1" helper_size="0" flexible="false" use_knot_distance="false" ignore_radius_0="false" only_selected="true" hide_knots="false"></inkscape:path-effect>
    <pattern y="0" x="0" height="6" width="6" patternUnits="userSpaceOnUse" id="EMFhbasepattern"></pattern>
    <pattern y="0" x="0" height="6" width="6" patternUnits="userSpaceOnUse" id="EMFhbasepattern-6"></pattern>
  </defs>
  <sodipodi:namedview id="base" pagecolor="#ffffff" bordercolor="#666666" borderopacity="1.0" inkscape:pageopacity="0.0" inkscape:pageshadow="2" inkscape:zoom="11.2" inkscape:cx="-4.1313748" inkscape:cy="14.90624" inkscape:document-units="mm" inkscape:current-layer="layer1" showgrid="true" units="px" inkscape:window-width="1366" inkscape:window-height="716" inkscape:window-x="-8" inkscape:window-y="-8" inkscape:window-maximized="1">
    <inkscape:grid type="xygrid" id="grid4726"></inkscape:grid>
  </sodipodi:namedview>
  
  <g inkscape:label="Layer 1" inkscape:groupmode="layer" id="layer1" transform="translate(0,-288.53332)" fill="#000000" class="color000 svgShape">
    <g transform="matrix(0.26458334,0,0,0.26458336,29.897884,-81.978182)" id="g10335" fill="#000000" class="color000 svgShape">
      <path id="path10333" transform="translate(-643.46719,1020.3622)" d="m 548.91797,385.74805 0,0.002 c -0.37579,0 -0.75286,0.0119 -1.12891,0.0449 -1.00279,0.089 -2.00265,0.30881 -2.97265,0.66211 a 0.50005,0.50005 0 0 0 -0.0488,0.0195 l -0.57031,0.2793 c -5.22202,2.5697 -9.13936,7.17811 -10.81446,12.72461 l -0.76758,2.54687 c -0.66934,2.216 1.02047,4.46875 3.34375,4.46875 l 19.91211,0 a 0.50005,0.50005 0 0 0 0.42579,-0.23632 l 2.49609,-4.0293 c 0.87721,-1.416 1.81603,-3.75061 1.65625,-5.53711 -0.28363,-3.1721 -1.76167,-6.30389 -4.21484,-8.30859 -2.09485,-1.7119 -4.68588,-2.61632 -7.31641,-2.63672 z m -7.67969,4.03125 c 0.11913,0.5322 0.51444,0.99062 1.07813,1.13672 l 4.73632,1.22851 c 0.96869,0.2511 1.66571,1.09401 1.73243,2.09961 l 0.17773,2.67383 c 0.0872,1.3137 -0.86142,2.45191 -2.16016,2.59961 l -8.15234,0.92773 c -1.42434,0.162 -2.86622,-0.0331 -4.19727,-0.56836 l -0.12695,-0.0508 0.0156,-0.0527 c 1.20596,-3.9931 3.63405,-7.47494 6.89648,-9.99414 z M 552.7168,393.5 a 1.25,1.25 0 0 1 1.25,1.25 1.25,1.25 0 0 1 -1.25,1.25 1.25,1.25 0 0 1 -1.25,-1.25 1.25,1.25 0 0 1 1.25,-1.25 z" style="color: rgb(0, 0, 0); font: medium sans-serif; text-indent: 0px; text-align: start; text-decoration: none solid rgb(0, 0, 0); letter-spacing: normal; word-spacing: normal; text-transform: none; direction: ltr; writing-mode: lr-tb; baseline-shift: baseline; text-anchor: start; white-space: normal; clip-rule: nonzero; display: inline; overflow: visible; visibility: visible; opacity: 1; isolation: auto; mix-blend-mode: normal; color-interpolation: srgb; color-interpolation-filters: linearrgb; fill-opacity: 1; fill-rule: nonzero; stroke: none; stroke-width: 1; stroke-linecap: round; stroke-linejoin: round; stroke-miterlimit: 4; stroke-dasharray: none; stroke-dashoffset: 0; stroke-opacity: 1; color-rendering: auto; image-rendering: auto; shape-rendering: auto; text-rendering: auto;" inkscape:connector-curvature="0" fill="#d7d8da" class="colorrgb596061 svgShape"></path>
    </g>
  </g>

	<metadata>
		<rdf:rdf xmlns:rdf="http://www.w3.org/1999/02/22-rdf-syntax-ns#" xmlns:rdfs="http://www.w3.org/2000/01/rdf-schema#" xmlns:dc="http://purl.org/dc/elements/1.1/">
			<rdf:description about="https://iconscout.com/legal#licenses" dc:title="helmet-motorcycle-safety-rider-protection-gear-riding" dc:description="helmet-motorcycle-safety-rider-protection-gear-riding" dc:publisher="Iconscout" dc:date="2017-04-11" dc:format="image/svg+xml" dc:language="en">
				<dc:creator>
					<rdf:bag>
						<rdf:li>Vignesh Oviyan</rdf:li>
					</rdf:bag>
				</dc:creator>
			</rdf:description>
		</rdf:rdf>
    </metadata></svg>
</g></svg>