<svg  xmlns="http://www.w3.org/2000/svg" viewBox="0 0 80 80" width="150px" height="150px"><path d="M 44 17 C 43.640625 16.996094 43.304688 17.183594 43.121094 17.496094 C 42.941406 17.808594 42.941406 18.191406 43.121094 18.503906 C 43.304688 18.816406 43.640625 19.003906 44 19 L 48.78125 19 C 49.15625 19 49.496094 19.207031 49.671875 19.542969 L 53.0625 26.109375 C 52.152344 24.839844 50.671875 24 49 24 L 39 24 C 35.757813 24 32.960938 25.949219 31.707031 28.734375 C 31.472656 28.578125 31.214844 28.445313 30.941406 28.347656 L 30.929688 28.332031 C 30.773438 28.160156 30.566406 28.046875 30.339844 28.015625 L 17.644531 26.050781 C 17.574219 26.039063 17.503906 26.039063 17.433594 26.042969 C 17.300781 26.023438 17.171875 26 17 26 C 14.800781 26 13 27.800781 13 30 L 13 32.144531 C 9.164063 32.660156 5.773438 34.613281 3.425781 37.457031 C 3.074219 37.886719 3.132813 38.515625 3.558594 38.867188 C 3.988281 39.21875 4.617188 39.160156 4.96875 38.734375 C 7.355469 35.839844 10.953125 34 15 34 L 21.378906 34 L 19.445313 37.871094 C 18.070313 37.316406 16.574219 37 15 37 C 8.382813 37 3 42.382813 3 49 C 3 55.617188 8.382813 61 15 61 C 21.613281 61 26.992188 55.625 27 49.015625 L 24.972656 49.523438 C 24.699219 54.792969 20.335938 59 15 59 C 9.484375 59 5 54.515625 5 49 C 5 43.484375 9.484375 39 15 39 C 16.25 39 17.4375 39.253906 18.542969 39.679688 L 16.285156 44.191406 C 15.875 44.078125 15.449219 44 15 44 C 12.242188 44 10 46.242188 10 49 C 10 51.757813 12.242188 54 15 54 C 17.09375 54 18.886719 52.703125 19.628906 50.875 L 16.175781 51.746094 C 15.816406 51.902344 15.421875 52 15 52 C 13.347656 52 12 50.652344 12 49 C 12 47.347656 13.347656 46 15 46 C 15.125 46 15.242188 46.023438 15.363281 46.035156 L 14.09375 48.578125 C 14.074219 48.617188 14.058594 48.660156 14.042969 48.703125 C 14.039063 48.707031 14.039063 48.714844 14.035156 48.722656 C 14.03125 48.742188 14.027344 48.757813 14.019531 48.777344 C 14.015625 48.796875 14.011719 48.820313 14.003906 48.839844 C 14.003906 48.851563 14 48.863281 14 48.875 C 13.996094 48.894531 13.996094 48.914063 13.996094 48.933594 C 13.992188 48.949219 13.992188 48.964844 13.988281 48.980469 C 13.988281 48.992188 13.988281 49.007813 13.988281 49.019531 C 13.988281 49.074219 13.992188 49.128906 14 49.183594 C 14.003906 49.191406 14.003906 49.203125 14.007813 49.210938 C 14.019531 49.265625 14.035156 49.320313 14.050781 49.375 C 14.058594 49.386719 14.0625 49.402344 14.070313 49.417969 C 14.078125 49.433594 14.085938 49.453125 14.09375 49.46875 C 14.097656 49.476563 14.101563 49.484375 14.109375 49.496094 C 14.121094 49.515625 14.132813 49.539063 14.144531 49.5625 C 14.148438 49.566406 14.152344 49.574219 14.15625 49.578125 C 14.171875 49.601563 14.1875 49.621094 14.203125 49.644531 C 14.207031 49.648438 14.210938 49.652344 14.214844 49.65625 C 14.253906 49.703125 14.296875 49.746094 14.34375 49.785156 C 14.351563 49.789063 14.355469 49.792969 14.359375 49.796875 C 14.378906 49.8125 14.402344 49.832031 14.421875 49.84375 C 14.425781 49.847656 14.429688 49.851563 14.4375 49.855469 C 14.515625 49.910156 14.601563 49.949219 14.691406 49.980469 C 14.699219 49.980469 14.703125 49.984375 14.710938 49.984375 C 14.738281 49.992188 14.769531 50 14.796875 50.003906 C 14.800781 50.003906 14.808594 50.003906 14.8125 50.003906 C 14.839844 50.011719 14.867188 50.015625 14.894531 50.015625 C 14.894531 50.019531 14.894531 50.019531 14.894531 50.015625 C 14.925781 50.019531 14.953125 50.023438 14.984375 50.023438 C 14.988281 50.023438 14.992188 50.023438 14.996094 50.023438 C 15.074219 50.023438 15.15625 50.011719 15.234375 49.992188 L 15.25 49.988281 C 15.253906 49.988281 15.257813 49.988281 15.257813 49.984375 L 29.546875 46.375 L 31.046875 49.9375 C 31.828125 51.789063 33.648438 53 35.65625 53 L 44.066406 53 C 46.246094 53 48.179688 51.582031 48.835938 49.503906 L 53.734375 34 L 57 34 C 57.042969 34 57.085938 33.996094 57.128906 33.992188 L 58.25 36.167969 C 56.792969 37.050781 55.488281 38.167969 54.410156 39.476563 C 54.171875 39.75 54.101563 40.132813 54.226563 40.472656 C 54.351563 40.816406 54.652344 41.0625 55.011719 41.117188 C 55.371094 41.175781 55.730469 41.03125 55.953125 40.746094 C 56.863281 39.644531 57.949219 38.695313 59.167969 37.941406 L 65.109375 49.457031 C 65.363281 49.949219 65.96875 50.140625 66.460938 49.890625 C 66.949219 49.636719 67.140625 49.03125 66.890625 48.542969 L 65.597656 46.042969 C 65.730469 46.023438 65.863281 46 66 46 C 67.652344 46 69 47.347656 69 49 C 69 50.652344 67.652344 52 66 52 C 64.683594 52 63.574219 51.140625 63.171875 49.953125 L 61.535156 46.792969 C 61.203125 47.460938 61 48.203125 61 49 C 61 51.757813 63.242188 54 66 54 C 68.757813 54 71 51.757813 71 49 C 71 46.242188 68.757813 44 66 44 C 65.527344 44 65.082031 44.082031 64.652344 44.207031 L 62.328125 39.707031 C 63.464844 39.253906 64.703125 39 66 39 C 71.515625 39 76 43.484375 76 49 C 76 54.515625 71.515625 59 66 59 C 60.484375 59 56 54.515625 56 49 C 56 46.210938 57.148438 43.6875 59 41.871094 L 58.050781 40.035156 C 55.574219 42.234375 54 45.433594 54 49 C 54 55.617188 59.382813 61 66 61 C 72.617188 61 78 55.617188 78 49 C 78 42.382813 72.617188 37 66 37 C 64.371094 37 62.824219 37.335938 61.410156 37.929688 L 60.949219 37.035156 C 62.503906 36.378906 64.203125 36 66 36 C 66.359375 36.003906 66.695313 35.816406 66.878906 35.503906 C 67.058594 35.191406 67.058594 34.808594 66.878906 34.496094 C 66.695313 34.183594 66.359375 33.996094 66 34 C 63.878906 34 61.867188 34.460938 60.03125 35.257813 L 57.828125 30.984375 C 57.886719 30.988281 57.941406 31 58 31 L 59 31 C 60.09375 31 61 30.09375 61 29 L 61 25 C 61 23.90625 60.09375 23 59 23 L 58 23 C 56.601563 23 55.367188 23.734375 54.652344 24.832031 L 51.449219 18.625 C 50.933594 17.628906 49.902344 17 48.78125 17 Z M 58 25 L 59 25 L 59 29 L 58 29 C 57.320313 29 56.730469 28.671875 56.371094 28.160156 L 56.128906 27.699219 C 56.050781 27.480469 56 27.246094 56 27 C 56 25.882813 56.882813 25 58 25 Z M 39 26 L 49 26 C 50.667969 26 52 27.332031 52 29 L 52 32 C 51.449219 32 51 32.449219 51 33 C 51 33.417969 51.261719 33.792969 51.65625 33.9375 L 46.929688 48.90625 C 46.535156 50.15625 45.382813 51 44.066406 51 L 35.65625 51 C 34.445313 51 33.359375 50.277344 32.890625 49.164063 L 30.902344 44.4375 L 36.84375 33.542969 C 36.855469 33.519531 36.867188 33.496094 36.878906 33.46875 C 36.882813 33.464844 36.886719 33.460938 36.890625 33.453125 C 36.894531 33.445313 36.898438 33.4375 36.902344 33.429688 C 36.910156 33.40625 36.921875 33.386719 36.933594 33.363281 C 36.933594 33.363281 36.933594 33.359375 36.933594 33.359375 C 37.058594 33.046875 37.015625 32.695313 36.828125 32.421875 C 36.636719 32.144531 36.324219 31.984375 35.988281 31.988281 C 35.660156 31.996094 35.351563 32.164063 35.171875 32.441406 C 35.167969 32.445313 35.164063 32.453125 35.15625 32.457031 C 35.15625 32.460938 35.15625 32.460938 35.15625 32.464844 C 35.152344 32.46875 35.148438 32.476563 35.144531 32.484375 C 35.136719 32.496094 35.128906 32.507813 35.125 32.519531 C 35.117188 32.53125 35.113281 32.539063 35.109375 32.546875 L 29.90625 42.082031 L 26.503906 34 L 31.832031 34 C 32.125 34.050781 32.425781 33.96875 32.652344 33.773438 C 32.875 33.582031 33.003906 33.296875 33 33 L 33 32 C 33 28.675781 35.675781 26 39 26 Z M 53.6875 27.328125 L 54 27.929688 L 54 28 L 54.035156 28 L 56.097656 32 L 54 32 L 54 29 C 54 28.410156 53.878906 27.855469 53.6875 27.328125 Z M 18.152344 27.792969 L 17.808594 28.101563 L 29.683594 29.9375 L 29.460938 29.6875 C 29.625 29.875 29.855469 29.988281 30.101563 30.015625 C 30.613281 30.066406 31 30.472656 31 31 L 31 32 L 25.152344 32 C 25.09375 31.992188 25.039063 31.984375 24.980469 31.984375 C 24.933594 31.988281 24.882813 31.992188 24.835938 32 L 15 32 L 15 30 C 15 28.882813 15.882813 28 17 28 C 17.070313 28 17.175781 28.011719 17.320313 28.035156 C 17.621094 28.085938 17.925781 27.996094 18.152344 27.792969 Z M 40 32 C 39.449219 32 39 32.449219 39 33 C 39 33.550781 39.449219 34 40 34 C 40.550781 34 41 33.550781 41 33 C 41 32.449219 40.550781 32 40 32 Z M 44 32 C 43.449219 32 43 32.449219 43 33 C 43 33.550781 43.449219 34 44 34 C 44.550781 34 45 33.550781 45 33 C 45 32.449219 44.550781 32 44 32 Z M 48 32 C 47.449219 32 47 32.449219 47 33 C 47 33.550781 47.449219 34 48 34 C 48.550781 34 49 33.550781 49 33 C 49 32.449219 48.550781 32 48 32 Z M 23.617188 34 L 24.335938 34 L 28.761719 44.511719 L 26.332031 45.125 C 25.636719 43.09375 24.421875 41.300781 22.828125 39.925781 L 21.902344 41.78125 C 23.007813 42.839844 23.859375 44.148438 24.390625 45.613281 L 16.859375 47.515625 Z M 39 36 C 38.640625 35.996094 38.304688 36.183594 38.121094 36.496094 C 37.941406 36.808594 37.941406 37.191406 38.121094 37.503906 C 38.304688 37.816406 38.640625 38.003906 39 38 L 47 38 C 47.359375 38.003906 47.695313 37.816406 47.878906 37.503906 C 48.058594 37.191406 48.058594 36.808594 47.878906 36.496094 C 47.695313 36.183594 47.359375 35.996094 47 36 Z M 40 39 C 39.640625 38.996094 39.304688 39.183594 39.121094 39.496094 C 38.941406 39.808594 38.941406 40.191406 39.121094 40.503906 C 39.304688 40.816406 39.640625 41.003906 40 41 L 46 41 C 46.359375 41.003906 46.695313 40.816406 46.878906 40.503906 C 47.058594 40.191406 47.058594 39.808594 46.878906 39.496094 C 46.695313 39.183594 46.359375 38.996094 46 39 Z M 37.5 42 C 35.578125 42 34 43.578125 34 45.5 C 34 47.421875 35.578125 49 37.5 49 L 43 49 C 44.644531 49 46 47.644531 46 46 C 46 44.753906 45.140625 43.828125 44.046875 43.378906 C 43.898438 43.199219 43.6875 43.074219 43.457031 43.03125 L 38.269531 42.089844 C 38.039063 42.039063 37.78125 42 37.5 42 Z M 42.28125 43.945313 C 42.238281 44.472656 42.613281 44.945313 43.140625 45.015625 C 43.628906 45.085938 44 45.484375 44 46 C 44 46.566406 43.566406 47 43 47 L 37.5 47 C 36.660156 47 36 46.339844 36 45.5 C 36 44.660156 36.660156 44 37.5 44 C 37.597656 44 37.707031 44.011719 37.832031 44.042969 C 37.847656 44.042969 37.859375 44.046875 37.875 44.050781 L 42.207031 44.839844 Z"/></svg>