<svg  xmlns="http://www.w3.org/2000/svg" viewBox="0 0 24 24" width="100px" height="100px"><path d="M 4 3 L 4 15 L 2 15 L 2 18 C 2 19.654 3.346 21 5 21 L 18 21 C 19.64497 21 21 19.64497 21 18 L 21 3 L 4 3 z M 6 5 L 19 5 L 19 18 C 19 18.56503 18.56503 19 18 19 C 17.448 19 17 18.551 17 18 L 17 15 L 6 15 L 6 5 z M 8 7 L 8 9 L 10 9 L 10 7 L 8 7 z M 12 7 L 12 9 L 17 9 L 17 7 L 12 7 z M 8 11 L 8 13 L 10 13 L 10 11 L 8 11 z M 12 11 L 12 13 L 17 13 L 17 11 L 12 11 z M 4 17 L 15 17 L 15 18 C 15 18.35 15.060875 18.687 15.171875 19 L 5 19 C 4.449 19 4 18.551 4 18 L 4 17 z"/></svg>