<svg id="SvgjsSvg1001" width="288" height="288" xmlns="http://www.w3.org/2000/svg" version="1.1" xmlns:xlink="http://www.w3.org/1999/xlink" xmlns:svgjs="http://svgjs.com/svgjs"><defs id="SvgjsDefs1002"></defs><g id="SvgjsG1008" transform="matrix(0.9167,0,0,0.9167,11.995201112174982,11.9952108039856)"><!--?xml version="1.0" encoding="UTF-8" standalone="no"?--><svg xmlns:dc="http://purl.org/dc/elements/1.1/" xmlns:cc="http://creativecommons.org/ns#" xmlns:rdf="http://www.w3.org/1999/02/22-rdf-syntax-ns#" xmlns:svg="http://www.w3.org/2000/svg" xmlns="http://www.w3.org/2000/svg" xmlns:sodipodi="http://sodipodi.sourceforge.net/DTD/sodipodi-0.dtd" xmlns:inkscape="http://www.inkscape.org/namespaces/inkscape" width="288" height="288" viewBox="0 0 8.4666665 8.4666669" version="1.1" id="svg8" inkscape:version="0.91 r13725" sodipodi:docname="supersport-sport-motorcycle-motorbike-fairing-racing.svg">
  <defs id="defs2">
    <inkscape:path-effect effect="fillet-chamfer" id="path-effect6194-9" is_visible="true" fillet_chamfer_values="-2.083553,1 | -1.5194253,1 | 0,1" method="auto" radius="2" chamfer_steps="1" helper_size="0" flexible="false" use_knot_distance="false" ignore_radius_0="false" only_selected="true" hide_knots="false"></inkscape:path-effect>
    <inkscape:path-effect effect="fillet-chamfer" id="path-effect6200-3" is_visible="true" fillet_chamfer_values="0,0 | -2.1346047,1 | -1.3969861,1 | -0.057274208,1 | -0.16666667,1" method="auto" radius="0.5" chamfer_steps="1" helper_size="0" flexible="false" use_knot_distance="false" ignore_radius_0="false" only_selected="true" hide_knots="false"></inkscape:path-effect>
    <pattern y="0" x="0" height="6" width="6" patternUnits="userSpaceOnUse" id="EMFhbasepattern"></pattern>
    <pattern y="0" x="0" height="6" width="6" patternUnits="userSpaceOnUse" id="EMFhbasepattern-6"></pattern>
    <inkscape:path-effect effect="fillet-chamfer" id="path-effect6795-9" is_visible="true" fillet_chamfer_values="0,0 | -2,1 | -2,1 | -2,1" method="auto" radius="2" chamfer_steps="1" helper_size="0" flexible="false" use_knot_distance="false" ignore_radius_0="false" only_selected="true" hide_knots="false"></inkscape:path-effect>
    <pattern y="0" x="0" height="6" width="6" patternUnits="userSpaceOnUse" id="EMFhbasepattern-4"></pattern>
    <pattern y="0" x="0" height="6" width="6" patternUnits="userSpaceOnUse" id="EMFhbasepattern-3"></pattern>
    <pattern y="0" x="0" height="6" width="6" patternUnits="userSpaceOnUse" id="EMFhbasepattern-0"></pattern>
    <inkscape:path-effect effect="fillet-chamfer" id="path-effect5842-1-6-2-7" is_visible="true" fillet_chamfer_values="0,0 | -0.49999733,1 | -0.50000267,1" method="auto" radius="0.5" chamfer_steps="1" helper_size="0" flexible="false" use_knot_distance="false" ignore_radius_0="false" only_selected="true" hide_knots="false"></inkscape:path-effect>
  </defs>
  <sodipodi:namedview id="base" pagecolor="#ffffff" bordercolor="#666666" borderopacity="1.0" inkscape:pageopacity="0.0" inkscape:pageshadow="2" inkscape:zoom="11.2" inkscape:cx="13.761073" inkscape:cy="15.592873" inkscape:document-units="mm" inkscape:current-layer="layer1" showgrid="true" units="px" inkscape:window-width="1366" inkscape:window-height="716" inkscape:window-x="-8" inkscape:window-y="-8" inkscape:window-maximized="1">
    <inkscape:grid type="xygrid" id="grid4726"></inkscape:grid>
  </sodipodi:namedview>
  
  <g inkscape:label="Layer 1" inkscape:groupmode="layer" id="layer1" transform="translate(0,-288.53332)" fill="#d7d8da" class="color000 svgShape">
    <path inkscape:connector-curvature="0" id="path10353" d="m 1.8520747,292.75535 a 1.0583334,1.0639478 0 0 0 -1.05833335,1.06395 1.0583334,1.0639478 0 0 0 1.05833335,1.06395 1.0583334,1.0639478 0 0 0 1.0583334,-1.06395 1.0583334,1.0639478 0 0 0 -1.0583334,-1.06395 z m 0,0.26599 a 0.79389252,0.79810411 0 0 1 0.79375,0.79796 0.79389252,0.79810411 0 0 1 -0.79375,0.79796 0.79389252,0.79810411 0 0 1 -0.7942659,-0.79796 0.79389252,0.79810411 0 0 1 0.7942659,-0.79796 z" style="opacity: 1; fill-opacity: 1; stroke: none; stroke-width: 1; stroke-linecap: round; stroke-linejoin: round; stroke-miterlimit: 4; stroke-dasharray: none; stroke-opacity: 1;" fill="#3b3c3d" class="colorrgb596061 svgShape"></path>
    <path sodipodi:nodetypes="cccccccsscccccscccccc" inkscape:connector-curvature="0" style="fill-rule: evenodd; stroke: none; stroke-width: 1px; stroke-linecap: butt; stroke-linejoin: round; stroke-opacity: 1;" d="m 5.6359207,291.22579 0,-0.37592 c -1.05e-5,-0.16847 0.1954689,-0.26112 0.3253582,-0.15416 l 0.8266589,0.68063 c 0.3730731,0.30716 0.3896942,0.8738 0.035272,1.2024 l -1.9833935,1.8389 -1.3268431,0 0,-0.59847 c 0,-0.91814 -0.7425611,-1.66242 -1.6585539,-1.66242 l -0.2653691,0 -0.59707996,-1.06395 1.34118616,0.44811 c 0.033293,0.0112 0.060833,0.0351 0.076565,0.0666 l 0.018574,0.0373 c 0.056327,0.11291 0.1624806,0.19238 0.2862342,0.21428 l 0.7832699,0.13855 c 0.095287,0.0168 0.1934183,-0.003 0.2760398,-0.0524 l 0.4105513,-0.25149 c 0.4025238,-0.24657 0.9083014,-0.24657 1.3108252,0 l 0.5387473,0.33001 z" id="path10355" fill="#3b3c3d" class="colorrgb596061 svgShape"></path>
    <path inkscape:connector-curvature="0" id="path10357" d="m 7.1700967,292.9138 -0.2051553,0.19066 a 0.79389252,0.79810411 0 0 1 0.4433835,0.71484 0.79389252,0.79810411 0 0 1 -0.7937501,0.79796 0.79389252,0.79810411 0 0 1 -0.7363883,-0.50133 l -0.2046394,0.19066 c 0.2049833,0.39967 0.6377385,0.62696 1.0810717,0.56729 0.4433305,-0.0597 0.8018516,-0.3935 0.8950352,-0.83328 0.093189,-0.43978 -0.098899,-0.89068 -0.4795573,-1.1268 z" style="opacity: 1; fill-opacity: 1; stroke: none; stroke-width: 1; stroke-linecap: round; stroke-linejoin: round; stroke-miterlimit: 4; stroke-dasharray: none; stroke-opacity: 1;" fill="#3b3c3d" class="colorrgb596061 svgShape"></path>
  </g>

	<metadata>
		<rdf:rdf xmlns:rdf="http://www.w3.org/1999/02/22-rdf-syntax-ns#" xmlns:rdfs="http://www.w3.org/2000/01/rdf-schema#" xmlns:dc="http://purl.org/dc/elements/1.1/">
			<rdf:description about="https://iconscout.com/legal#licenses" dc:title="supersport-sport-motorcycle-motorbike-fairing-racing" dc:description="supersport-sport-motorcycle-motorbike-fairing-racing" dc:publisher="Iconscout" dc:date="2017-04-11" dc:format="image/svg+xml" dc:language="en">
				<dc:creator>
					<rdf:bag>
						<rdf:li>Vignesh Oviyan</rdf:li>
					</rdf:bag>
				</dc:creator>
			</rdf:description>
		</rdf:rdf>
    </metadata></svg>
</g></svg>