<svg version="1.1" viewBox="0.0 0.0 405.26771653543307 135.08923884514437" fill="none" stroke="none" stroke-linecap="square" stroke-miterlimit="10" xmlns:xlink="http://www.w3.org/1999/xlink" xmlns="http://www.w3.org/2000/svg"><clipPath id="p.0"><path d="m0 0l405.26773 0l0 135.08923l-405.26773 0l0 -135.08923z" clip-rule="nonzero"/></clipPath><g clip-path="url(#p.0)"><path fill="#000000" fill-opacity="0.0" d="m0 0l405.26773 0l0 135.08923l-405.26773 0z" fill-rule="evenodd"/><path fill="#000000" fill-opacity="0.0" d="m86.314964 3.9265091l638.86615 0l0 153.85826l-638.86615 0z" fill-rule="evenodd"/><path fill="#3880ff" d="m130.5337 129.29839q-13.531242 0 -21.953117 -8.515633q-8.40625 -8.53125 -8.40625 -22.71875l0 -1.75q0 -9.5 3.65625 -16.96875q3.671875 -7.46875 10.296875 -11.625q6.625 -4.171871 14.765617 -4.171871q12.953125 0 20.0 8.265621q7.0625 8.265625 7.0625 23.375l0 5.75l-41.421867 0q0.640625 7.84375 5.234375 12.421875q4.609375 4.5625 11.578117 4.5625q9.796875 0 15.9375 -7.90625l7.6875 7.328125q-3.8125 5.6875 -10.171875 8.828125q-6.359375 3.1250076 -14.265625 3.1250076zm-1.703125 -54.312508q-5.8593674 0 -9.468742 4.109375q-3.59375 4.09375 -4.59375 11.40625l27.124992 0l0 -1.046875q-0.46875 -7.15625 -3.8125 -10.8125q-3.328125 -3.65625 -9.25 -3.65625zm64.22266 42.9375q5.328125 0 8.84375 -3.09375q3.515625 -3.109375 3.75 -7.6875l13.421875 0q-0.234375 5.921875 -3.703125 11.046875q-3.453125 5.125 -9.375 8.125q-5.90625 2.9843826 -12.765625 2.9843826q-13.296875 0 -21.09375 -8.609383q-7.796875 -8.625 -7.796875 -23.796875l0 -1.46875q0 -14.46875 7.734375 -23.171875q7.734375 -8.703121 21.09375 -8.703121q11.3125 0 18.421875 6.593746q7.125 6.59375 7.484375 17.3125l-13.421875 0q-0.234375 -5.4375 -3.71875 -8.953125q-3.484375 -3.515625 -8.875 -3.515625q-6.921875 0 -10.671875 5.015625q-3.75 5.0 -3.796875 15.1875l0 2.296875q0 10.3125 3.71875 15.375q3.71875 5.0625 10.75 5.0625zm51.90625 10.203133l-14.234375 0l0 -63.406258l14.234375 0l0 63.406258zm-15.109375 -79.859375q0 -3.28125 2.078125 -5.453125q2.078125 -2.171875 5.9375 -2.171875q3.875 0 5.984375 2.171875q2.109375 2.171875 2.109375 5.453125q0 3.21875 -2.109375 5.359375q-2.109375 2.140625 -5.984375 2.140625q-3.859375 0 -5.9375 -2.140625q-2.078125 -2.140625 -2.078125 -5.359375zm43.832047 16.453121l0.40625 7.328125q7.03125 -8.499996 18.453125 -8.499996q19.8125 0 20.15625 22.687496l0 41.890633l-14.234375 0l0 -41.078133q0 -6.03125 -2.609375 -8.921875q-2.609375 -2.90625 -8.53125 -2.90625q-8.609375 0 -12.828125 7.78125l0 45.125008l-14.234375 0l0 -63.406258l13.421875 0zm50.847656 31.125q0 -9.328125 3.6875 -16.796875q3.703125 -7.46875 10.375 -11.484375q6.6875 -4.015621 15.359375 -4.015621q12.828125 0 20.828125 8.265621q8.0 8.265625 8.640625 21.921875l0.0625 3.328125q0 9.375 -3.609375 16.765625q-3.59375 7.375 -10.3125 11.421875q-6.703125 4.0468826 -15.5 4.0468826q-13.40625 0 -21.46875 -8.937508q-8.0625 -8.9375 -8.0625 -23.8125l0 -0.703125zm14.25 1.21875q0 9.796875 4.03125 15.328125q4.046875 5.53125 11.25 5.53125q7.21875 0 11.21875 -5.625q4.015625 -5.625 4.015625 -16.453125q0 -9.609375 -4.125 -15.234375q-4.125 -5.625 -11.21875 -5.625q-6.96875 0 -11.078125 5.53125q-4.09375 5.53125 -4.09375 16.546875z" fill-rule="nonzero"/><path fill="#3880ff" d="m389.35013 120.23588q0 -2.28125 0.90625 -4.09375q0.90625 -1.828125 2.53125 -2.8125q1.640625 -0.984375 3.75 -0.984375q3.140625 0 5.09375 2.015625q1.953125 2.015625 2.109375 5.359375l0.015625 0.8125q0 2.296875 -0.875 4.109375q-0.875 1.796875 -2.515625 2.78125q-1.640625 0.9843826 -3.796875 0.9843826q-3.28125 0 -5.25 -2.1718826q-1.96875 -2.1875 -1.96875 -5.828125l0 -0.171875zm3.484375 0.296875q0 2.390625 0.984375 3.75q1.0 1.359375 2.75 1.359375q1.765625 0 2.75 -1.375q0.984375 -1.375 0.984375 -4.03125q0 -2.34375 -1.015625 -3.71875q-1.015625 -1.375 -2.75 -1.375q-1.703125 0 -2.703125 1.359375q-1.0 1.34375 -1.0 4.03125z" fill-rule="nonzero"/><path fill="#3880ff" d="m86.06562 3.9265091l26.629349 27.417322l-11.151726 0c-2.2721329 39.051567 -9.250252 71.66936 -18.808067 87.914536c-9.557823 16.24517 -20.563206 14.193459 -29.662743 -5.5299683l0 0c8.120407 -17.601135 13.911964 -47.53504 15.939613 -82.38457l-11.151726 0z" fill-rule="evenodd"/><path fill="#2c66cb" d="m36.80683 130.13124c-8.750336 0 -17.14228 -13.296539 -23.329704 -36.964516c-6.1874223 -23.667976 -9.66348 -55.768642 -9.66348 -89.24022l32.5312 0l0 0c0 33.471573 3.476059 65.57224 9.663483 89.24022c6.18742 23.667976 14.579365 36.964516 23.329704 36.964516z" fill-rule="evenodd"/><path fill="#000000" fill-opacity="0.0" d="m53.072433 113.7284l0 0c8.120407 -17.601135 13.911964 -47.53504 15.939613 -82.38457l-11.151726 0l28.2053 -27.417322l26.629349 27.417322l-11.151726 0c-3.358574 57.724403 -16.74533 98.78741 -32.205208 98.78741l-32.531204 0c-8.750336 0 -17.14228 -13.296539 -23.329704 -36.964516c-6.1874223 -23.667976 -9.66348 -55.768642 -9.66348 -89.24022l32.5312 0l0 0c0 33.471573 3.476059 65.57224 9.663483 89.24022c6.18742 23.667976 14.579365 36.964516 23.329704 36.964516" fill-rule="evenodd"/><path fill="#3880ff" d="m390.3832 120.884514l0 0c0 -4.4443665 3.0670166 -8.047241 6.8503723 -8.047241l0 0c1.816864 0 3.5592651 0.8478317 4.8439636 2.3569794c1.2846985 1.5091553 2.0064392 3.5559998 2.0064392 5.690262l0 0c0 4.444374 -3.0670166 8.047249 -6.850403 8.047249l0 0c-3.7833557 0 -6.8503723 -3.6028748 -6.8503723 -8.047249zm3.4252014 0c0 2.5526886 1.5335083 4.6220474 3.425171 4.6220474c1.8916931 0 3.4252014 -2.0693588 3.4252014 -4.6220474c0 -2.5526886 -1.5335083 -4.6220474 -3.4252014 -4.6220474l0 0c-1.8916626 0 -3.425171 2.0693588 -3.425171 4.6220474z" fill-rule="evenodd"/></g></svg>